<svg width="25" height="20" viewBox="0 0 25 20" fill="none" xmlns="http://www.w3.org/2000/svg">
<path fill-rule="evenodd" clip-rule="evenodd" d="M10.1353 5.19349C10.2269 5.02257 10.3194 4.85083 10.4119 4.67992C10.5952 4.3389 10.9443 4.12791 11.3238 4.12791H12.0611H17.1068C17.1156 4.12791 17.1204 4.11891 17.1164 4.11073L15.7127 1.50034C15.5285 1.15686 15.177 0.94342 14.7944 0.94342H9.62113C9.2425 0.94342 8.89416 1.15441 8.71082 1.49461C8.08286 2.66187 7.45533 3.82958 6.82791 4.99708L6.15847 6.24272C6.15448 6.25008 6.16006 6.25907 6.16803 6.25907H8.94916C9.32779 6.25907 9.67613 6.04808 9.85867 5.70788C9.91491 5.60392 9.97086 5.49965 10.0269 5.39527L10.1353 5.19349ZM12.5649 9.19734C12.5181 9.28425 12.4712 9.37117 12.4246 9.45828L12.4243 9.4589C12.3319 9.63125 12.2395 9.8036 12.1464 9.97595C11.9647 10.3145 11.6171 10.5247 11.2401 10.5247H3.85802C3.85722 10.5247 3.85722 10.5239 3.85722 10.5231L4.38918 9.53311L4.38979 9.53198L4.3904 9.53086C4.7855 8.79555 5.18046 8.06052 5.5758 7.32548C5.5758 7.32538 5.57581 7.3253 5.57583 7.32522C5.57587 7.32507 5.57594 7.32496 5.57603 7.32488C5.57627 7.32466 5.57659 7.32466 5.57659 7.32466H8.98903H9.73433C10.109 7.32466 10.4541 7.11531 10.6351 6.77919L10.9149 6.25826C11.0065 6.08652 11.099 5.91479 11.1915 5.74305C11.374 5.40285 11.7223 5.19186 12.101 5.19186H17.6983L17.6991 5.19268C18.2712 6.25864 18.8441 7.32378 19.417 8.38892L19.4173 8.38958L19.4177 8.39025C19.4177 8.39106 19.4177 8.39188 19.4169 8.39188H14.3496H13.6035C13.2297 8.39188 12.8853 8.60042 12.7052 8.93653C12.6588 9.02319 12.6122 9.10965 12.5656 9.19611L12.5649 9.19734ZM14.8445 13.4434C14.7988 13.5284 14.7532 13.6135 14.7074 13.6985C14.6125 13.8743 14.5177 14.051 14.4236 14.2276C14.245 14.5588 13.9055 14.7649 13.5364 14.7649H1.57892C1.57812 14.7649 1.57812 14.7641 1.57812 14.7633C2.14647 13.7067 2.71481 12.6493 3.28315 11.5919C3.28315 11.5915 3.28331 11.5913 3.28348 11.5912L3.28395 11.5911H11.2782H12.0211C12.3973 11.5911 12.7433 11.3809 12.925 11.0431C12.9717 10.9568 13.0181 10.8703 13.0646 10.7839L13.0648 10.7834L13.065 10.783C13.1113 10.6968 13.1576 10.6106 13.204 10.5247L13.4846 10.0029C13.6655 9.6668 14.0099 9.45826 14.3837 9.45826H19.9922L19.993 9.45908C20.5614 10.5157 21.1297 11.5731 21.6981 12.6305V12.6305C21.6981 12.6309 21.6981 12.6314 21.6979 12.6317C21.6978 12.632 21.6976 12.6321 21.6973 12.6321H16.6332H15.8999C15.518 12.6321 15.1657 12.8456 14.9816 13.1882C14.9357 13.2733 14.8901 13.3583 14.8445 13.4434ZM23.2808 15.5766C23.6174 16.2026 23.954 16.8286 24.2904 17.4547C24.673 18.1661 24.1716 19.0379 23.3801 19.0371C15.9334 19.0371 8.48681 19.0363 1.04018 19.0354C0.249445 19.0354 -0.251142 18.1653 0.130675 17.4555C0.34591 17.0561 0.560712 16.6562 0.775399 16.2566C0.851713 16.1145 0.928012 15.9725 1.00431 15.8305C1.00431 15.8297 1.00511 15.8297 1.00511 15.8297H13.5604H14.3121C14.6828 15.8297 15.0239 15.6228 15.2033 15.29C15.2503 15.202 15.2975 15.1143 15.3448 15.0266C15.392 14.9389 15.4392 14.8512 15.4863 14.7633L15.7557 14.262C15.943 13.9136 16.3001 13.6977 16.6875 13.6977H22.2705L22.2713 13.6985C22.6077 14.3246 22.9442 14.9506 23.2808 15.5766Z" fill="#00735D"/>
</svg>
